<svg width="24" height="18" viewBox="0 0 24 18" fill="none" xmlns="http://www.w3.org/2000/svg">
<path d="M3.73005 16.455L4.07054 15.7868L3.73005 16.455ZM1.54497 14.27L2.21322 13.9295L1.54497 14.27ZM16.455 14.27L15.7868 13.9295L16.455 14.27ZM14.27 16.455L13.9295 15.7868L14.27 16.455ZM14.27 1.54497L13.9295 2.21322L14.27 1.54497ZM16.455 3.73005L15.7868 4.07054L16.455 3.73005ZM3.73005 1.54497L4.07054 2.21322L3.73005 1.54497ZM1.54497 3.73005L2.21322 4.07054L1.54497 3.73005ZM9 6.75C9.41421 6.75 9.75 6.41421 9.75 6C9.75 5.58579 9.41421 5.25 9 5.25V6.75ZM5 5.25C4.58579 5.25 4.25 5.58579 4.25 6C4.25 6.41421 4.58579 6.75 5 6.75V5.25ZM23 8.11304H23.75H23ZM23 9.88696H22.25H23ZM17 4.62176L16.6997 3.93451L16.6911 3.93826L16.6826 3.94223L17 4.62176ZM17.3984 4.44768L17.6987 5.13494V5.13494L17.3984 4.44768ZM17.3984 13.5523L17.6987 12.8651L17.6987 12.8651L17.3984 13.5523ZM17 13.3782L16.681 14.057L16.6903 14.0614L16.6997 14.0655L17 13.3782ZM22.0951 14.617L22.5057 15.2446L22.0951 14.617ZM22.0951 3.38296L22.5057 2.75537V2.75537L22.0951 3.38296ZM16.7941 4.71794L16.0606 4.87444L16.7941 4.71794ZM9 16.25C7.58749 16.25 6.57322 16.2494 5.77708 16.1844C4.9897 16.12 4.48197 15.9964 4.07054 15.7868L3.38955 17.1233C4.04768 17.4586 4.77479 17.6075 5.65494 17.6794C6.52632 17.7506 7.61224 17.75 9 17.75V16.25ZM0.25 9C0.25 10.3878 0.249417 11.4737 0.320612 12.3451C0.392522 13.2252 0.541378 13.9523 0.876713 14.6104L2.21322 13.9295C2.00359 13.518 1.87996 13.0103 1.81563 12.2229C1.75058 11.4268 1.75 10.4125 1.75 9H0.25ZM4.07054 15.7868C3.27085 15.3793 2.62068 14.7291 2.21322 13.9295L0.876713 14.6104C1.42798 15.6924 2.30762 16.572 3.38955 17.1233L4.07054 15.7868ZM9 17.75C10.3878 17.75 11.4737 17.7506 12.3451 17.6794C13.2252 17.6075 13.9523 17.4586 14.6104 17.1233L13.9295 15.7868C13.518 15.9964 13.0103 16.12 12.2229 16.1844C11.4268 16.2494 10.4125 16.25 9 16.25V17.75ZM15.7868 13.9295C15.3793 14.7291 14.7291 15.3793 13.9295 15.7868L14.6104 17.1233C15.6924 16.572 16.572 15.6924 17.1233 14.6104L15.7868 13.9295ZM9 1.75C10.4125 1.75 11.4268 1.75058 12.2229 1.81563C13.0103 1.87996 13.518 2.00359 13.9295 2.21322L14.6104 0.876713C13.9523 0.541378 13.2252 0.392522 12.3451 0.320612C11.4737 0.249417 10.3878 0.25 9 0.25V1.75ZM13.9295 2.21322C14.7291 2.62068 15.3793 3.27085 15.7868 4.07054L17.1233 3.38955C16.572 2.30762 15.6924 1.42798 14.6104 0.876713L13.9295 2.21322ZM9 0.25C7.61224 0.25 6.52632 0.249417 5.65494 0.320612C4.77479 0.392522 4.04768 0.541378 3.38955 0.876713L4.07054 2.21322C4.48197 2.00359 4.9897 1.87996 5.77708 1.81563C6.57322 1.75058 7.58749 1.75 9 1.75V0.25ZM1.75 9C1.75 7.58749 1.75058 6.57322 1.81563 5.77708C1.87996 4.9897 2.00359 4.48197 2.21322 4.07054L0.876713 3.38955C0.541378 4.04768 0.392522 4.77479 0.320612 5.65494C0.249417 6.52632 0.25 7.61224 0.25 9H1.75ZM3.38955 0.876713C2.30762 1.42798 1.42798 2.30762 0.876713 3.38955L2.21322 4.07054C2.62068 3.27085 3.27085 2.62068 4.07054 2.21322L3.38955 0.876713ZM9 5.25H5V6.75H9V5.25ZM22.25 8.11304V9.88696H23.75V8.11304H22.25ZM17.3003 5.30901L17.6987 5.13494L17.0981 3.76043L16.6997 3.93451L17.3003 5.30901ZM17.6987 12.8651L17.3003 12.691L16.6997 14.0655L17.0981 14.2396L17.6987 12.8651ZM22.25 9.88696C22.25 11.2911 22.248 12.2589 22.145 12.9546C22.044 13.6364 21.871 13.8674 21.6844 13.9895L22.5057 15.2446C23.2241 14.7746 23.5036 14.0198 23.6288 13.1743C23.752 12.3427 23.75 11.2414 23.75 9.88696H22.25ZM17.0981 14.2396C18.3393 14.7819 19.3475 15.2247 20.159 15.4448C20.9839 15.6686 21.7874 15.7147 22.5057 15.2446L21.6844 13.9895C21.4978 14.1116 21.217 14.1776 20.5517 13.9971C19.873 13.813 18.9854 13.4273 17.6987 12.8651L17.0981 14.2396ZM23.75 8.11304C23.75 6.75855 23.752 5.65734 23.6288 4.82567C23.5036 3.98019 23.2241 3.2254 22.5057 2.75537L21.6844 4.01054C21.871 4.13264 22.044 4.36358 22.145 5.04545C22.248 5.74113 22.25 6.70889 22.25 8.11304H23.75ZM17.6987 5.13494C18.9854 4.57271 19.873 4.18703 20.5517 4.0029C21.217 3.82242 21.4978 3.88845 21.6844 4.01054L22.5057 2.75537C21.7874 2.28534 20.9839 2.33144 20.159 2.55522C19.3475 2.77534 18.3393 3.21809 17.0981 3.76043L17.6987 5.13494ZM17.75 9C17.75 7.01366 17.7541 5.62323 17.5276 4.56143L16.0606 4.87444C16.2459 5.74266 16.25 6.93753 16.25 9H17.75ZM17.5276 4.56143C17.4374 4.13896 17.3088 3.75356 17.1233 3.38955L15.7868 4.07054C15.9033 4.29921 15.9929 4.55724 16.0606 4.87444L17.5276 4.56143ZM16.6826 3.94223L16.4767 4.03841L17.1115 5.39746L17.3174 5.30129L16.6826 3.94223ZM16.25 9C16.25 11.0621 16.2459 12.2569 16.0607 13.1251L17.5277 13.4379C17.7541 12.3763 17.75 10.986 17.75 9H16.25ZM16.0607 13.1251C15.993 13.4425 15.9033 13.7007 15.7868 13.9295L17.1233 14.6104C17.3089 14.2463 17.4376 13.8607 17.5277 13.4379L16.0607 13.1251ZM17.319 12.6995L17.1132 12.6028L16.4752 13.9603L16.681 14.057L17.319 12.6995Z" fill="white"/>
</svg>
